<?xml version="1.0" encoding="UTF-8"?>
<svg id="Layer_1" data-name="Layer 1" xmlns="http://www.w3.org/2000/svg" viewBox="0 0 573.65 303.88">
  <defs>
    <style>
      .cls-1 {
        fill: #b9a77a;
      }

      .cls-2 {
        fill: #042623;
      }
    </style>
  </defs>
  <g>
    <path class="cls-1" d="M355.7,69.76c-.51.49-1.03.97-1.56,1.43l24.97,37.26-9.49-1.27c-3.07-.41-5.78-2.23-7.32-4.92l-14.9-25.99c-.59.38-1.19.75-1.8,1.1l23.89,43.44-9.5-1.91c-3.11-.63-5.74-2.7-7.07-5.58l-14.9-32.22c-.65.27-1.31.52-1.98.76l15.62,35.35-7.25-1.46c-3.41-.69-6.22-3.11-7.4-6.38l-9.1-25.26c-.69.14-1.39.26-2.08.37l10.07,29.57-5.42-1.09c-3.72-.75-6.68-3.55-7.65-7.21l-5.19-19.61h0c-.67.18-1.33.38-1.98.6l6.01,24.45-3.88-.78c-4.03-.81-7.14-4.01-7.84-8.06l-2.15-12.43-3.71,8.6c-.41.96-.31,2.06.26,2.93l11.44,17.23c.16.24.25.51.27.8l.22,3.26,7.21,7.21h16.95v7.4l-3.61-3.61h-3.98l3.78,3.78-4.12,4.12v-4.12l-3.79-3.78h-3.64l-3.79,3.78v3.26l-4.4-4.41,3.82-3.72-6.73-6.73-2.42.27c-.38.04-.77-.05-1.09-.26l-14.15-9.4,10.17,13.73,16.19,21.87h-6.83c-3.87,0-7.39-2.25-9.02-5.76l-5.94-12.77c-.56.26-1.13.51-1.7.73l9.53,24.02h-3.29c-4.81,0-8.93-3.44-9.79-8.17l-2.57-14.1c-.56.1-1.12.19-1.7.26l2.15,16.84c.41,3.24-.79,6.47-3.21,8.66l-3.04,2.74-3.04-2.74c-2.42-2.18-3.62-5.42-3.21-8.65l2.15-16.84c-.57-.07-1.13-.16-1.7-.26l-2.57,14.1c-.86,4.73-4.98,8.17-9.79,8.17h-3.29l9.53-24.02c-.57-.22-1.14-.47-1.7-.73l-5.94,12.77c-1.63,3.51-5.15,5.76-9.02,5.76h-6.83l16.19-21.87,10.17-13.73-14.15,9.4c-.32.21-.71.31-1.09.26l-2.42-.27-6.73,6.73,3.82,3.72-4.4,4.41v-3.26l-3.79-3.78h-3.64l-3.79,3.78v4.12l-4.12-4.12,3.78-3.78h-3.98l-3.61,3.61v-7.4h16.95l7.21-7.21.23-3.26c.02-.28.11-.56.27-.79l11.44-17.23c.58-.87.68-1.97.26-2.93l-3.71-8.61h0l-2.15,12.43c-.7,4.05-3.82,7.25-7.85,8.06l-3.87.78,6.01-24.46c-.65-.22-1.32-.41-1.99-.6l-5.18,19.62c-.97,3.67-3.94,6.47-7.66,7.21l-5.42,1.09,10.08-29.57c-.7-.1-1.39-.23-2.08-.36l-9.1,25.27c-1.18,3.28-3.99,5.7-7.4,6.38l-7.25,1.46,15.61-35.37c-.67-.23-1.32-.49-1.97-.75l-14.9,32.21c-1.33,2.88-3.96,4.95-7.07,5.58l-9.51,1.91,23.91-43.44c-.61-.35-1.21-.72-1.8-1.11l-14.9,26c-1.54,2.69-4.25,4.51-7.32,4.92l-9.49,1.27,24.97-37.27c-.53-.46-1.05-.94-1.57-1.43l-14.06,20.21c-1.73,2.49-4.49,4.05-7.52,4.25l-9.33.62,25.22-31.34c-.44-.55-.86-1.12-1.28-1.7l-13.99,16.78c-1.89,2.27-4.69,3.58-7.64,3.58h-9.28l44.7-46.58c2.41-2.51,5.73-3.93,9.21-3.93h9.97c2.67,0,4.83,2.16,4.83,4.83v5.63c0,4.54,1.52,8.72,4.06,12.07,3.64,4.8,9.41,7.9,15.91,7.9,1.44,0,2.85-.16,4.21-.45,1.08-.23,1.96-1.03,2.25-2.1l3.54-12.81c.05-.23.06-.47.02-.7-.24-1.55-2.34-2.52-4.7-2.16-1.89.28-3.36,1.34-3.75,2.54,0,0-1.05-2.04-1.07-3.56-.03-1.96.81-3.05,2.71-4.01l3.3-1.55c2.08-1.91,5.46-3.14,9.3-3.14,5.9,0,10.76,2.93,11.38,6.72l.06.46,2.39,17.98c.17,1.28,1.16,2.31,2.44,2.52,1.05.17,2.12.26,3.22.26,6.49,0,12.26-3.09,15.91-7.9,2.55-3.35,4.06-7.53,4.06-12.07v-5.63c0-2.67,2.16-4.83,4.83-4.83h9.97c3.48,0,6.8,1.42,9.21,3.93l44.7,46.58h-9.28c-2.95,0-5.75-1.31-7.64-3.58l-14-16.78c-.41.57-.83,1.14-1.27,1.7l25.21,31.34-9.34-.62c-3.02-.2-5.79-1.76-7.52-4.25l-14.06-20.21Z"/>
    <polygon class="cls-1" points="281.37 23.2 287.27 18.9 293.18 23.2 290.92 16.25 296.83 11.95 289.53 11.95 287.27 5 285.02 11.95 277.71 11.95 283.62 16.25 281.37 23.2"/>
    <polygon class="cls-1" points="310.89 23.38 314.67 29.63 315.28 22.34 322.39 20.67 315.66 17.84 316.27 10.56 311.5 16.09 304.76 13.26 308.55 19.52 303.78 25.05 310.89 23.38"/>
    <polygon class="cls-1" points="259.27 22.35 259.81 29.64 263.65 23.43 270.74 25.17 266.03 19.59 269.87 13.38 263.11 16.14 258.39 10.56 258.93 17.84 252.17 20.61 259.27 22.35"/>
  </g>
  <g>
    <g>
      <path class="cls-2" d="M162.51,194.51v31.72l2.48,2.75v.34h-21.89l-1.07-1.73c-.96,1.06-2.35,1.73-3.89,1.73h-8.68l-1.05-1.69c-.96,1.04-2.33,1.69-3.86,1.69h-10.07l-1.04-1.69c-.96,1.04-2.33,1.69-3.86,1.69h-16.99v.06c0,3.23-1.38,6.32-3.78,8.49-4.51,4.07-9.74,2.79-11.79,2.58l-.24-1.91c2.6.41,5.26-.35,7.25-2.07,2-1.71,3.15-4.22,3.15-6.85v-22.23h-.38c-3.51,0-6.82,1.64-8.95,4.42-2.13,2.79-2.84,6.41-1.91,9.79l1.57,5.78h9.67l-1.2,1.94h-13.31l-1.34-4.93c-1.21-4.48-.27-9.26,2.55-12.94,2.81-3.68,7.19-5.84,11.82-5.84h9.35v.34l-2.48,2.75v18.67h13.92c1.64,0,2.96-1.32,2.96-2.96v-14.07h5.37v13.71c0,1.26-.44,2.41-1.18,3.31h7.82c1.64,0,2.97-1.32,2.97-2.96v-16.07h5.36v15.72c0,1.26-.44,2.41-1.18,3.31h6.43c1.64,0,2.96-1.32,2.96-2.96v-18.06h5.37v17.71c0,1.26-.45,2.42-1.18,3.32h15.24l-.03-32.87-2.48-2.75v-.34h10.05v.34l-2.48,2.75Z"/>
      <polygon class="cls-2" points="567.91 191.76 567.91 191.41 557.85 191.41 557.85 191.76 560.33 194.51 560.33 226.22 557.85 228.97 557.85 229.31 567.91 229.31 567.91 228.97 565.43 226.22 565.43 194.51 567.91 191.76"/>
      <polygon class="cls-2" points="338.62 228.97 336.14 226.22 336.14 194.51 338.62 191.76 338.62 191.41 328.56 191.41 328.56 191.76 331.04 194.51 331.04 226.22 328.56 228.97 328.56 229.31 338.62 229.31 338.62 228.97"/>
      <polygon class="cls-2" points="508.08 237.22 508.08 237.63 511.27 240.83 511.68 240.83 514.88 237.63 514.88 237.22 511.68 234.03 511.27 234.03 508.08 237.22"/>
      <path class="cls-2" d="M393.91,208.68v17.55l2.47,2.73v.34h-22.29c-3.23,0-5.84-2.61-5.84-5.84v-16.09h-1.39c-12.4,0-14.67,17.03-1.27,18.74v1c-18.85,1.53-19.49-21.52-1.89-21.52h12.13v.34l-2.48,2.75v14.99c0,2.03,1.64,3.68,3.67,3.68h11.53v-21.77h7.83v.34l-2.47,2.73Z"/>
      <polygon class="cls-2" points="390.48 234.03 387.29 237.22 387.29 237.63 390.48 240.83 390.89 240.83 394.08 237.63 394.08 237.22 390.89 234.03 390.48 234.03"/>
      <polygon class="cls-2" points="386.2 237.63 386.2 237.22 383 234.03 382.59 234.03 379.4 237.22 379.4 237.63 382.59 240.83 383 240.83 386.2 237.63"/>
      <polygon class="cls-2" points="370.9 201.89 374.09 198.7 374.09 198.29 370.9 195.09 370.49 195.09 367.3 198.29 367.3 198.7 370.49 201.89 370.9 201.89"/>
      <polygon class="cls-2" points="363.01 201.89 366.21 198.7 366.21 198.29 363.01 195.09 362.6 195.09 359.41 198.29 359.41 198.7 362.6 201.89 363.01 201.89"/>
      <polygon class="cls-2" points="233.21 237.22 233.21 237.63 236.41 240.83 236.82 240.83 240.01 237.63 240.01 237.22 236.82 234.03 236.41 234.03 233.21 237.22"/>
      <polygon class="cls-2" points="251.85 234.03 248.65 237.22 248.65 237.63 251.85 240.83 252.26 240.83 255.45 237.63 255.45 237.22 252.26 234.03 251.85 234.03"/>
      <polygon class="cls-2" points="232.12 237.22 228.93 234.03 228.52 234.03 225.33 237.22 225.33 237.63 228.52 240.83 228.93 240.83 232.12 237.63 232.12 237.22"/>
      <polygon class="cls-2" points="213.05 201.89 216.24 198.7 216.24 198.29 213.05 195.09 212.64 195.09 209.44 198.29 209.44 198.7 212.64 201.89 213.05 201.89"/>
      <polygon class="cls-2" points="205.16 201.89 208.35 198.7 208.35 198.29 205.16 195.09 204.75 195.09 201.56 198.29 201.56 198.7 204.75 201.89 205.16 201.89"/>
      <polygon class="cls-2" points="168.78 191.76 171.26 194.51 171.26 226.22 168.78 228.97 168.78 229.31 178.83 229.31 178.83 228.97 176.35 226.22 176.35 194.51 178.83 191.76 178.83 191.41 168.78 191.41 168.78 191.76"/>
      <path class="cls-2" d="M324.77,191.76v-.34h-10.05v.34l2.48,2.75.03,32.87h-11.32c-2.42-.01-4.56-.35-6.46-.93,7.27-4.21,9.56-11.59,10.14-16.12-3.46-1.73-8.24-2.8-13.51-2.8s-10.05,1.07-13.51,2.8c.58,4.53,2.86,11.9,10.14,16.12-1.93.59-4.12.93-6.59.93h-7.78c-1.98,0-5.14-.75-7.67-2.05v-16.63l2.48-2.75v-.34h-10.36v.34l2.48,2.75v22.85c0,5.32-1.27,7.87-6.03,6.99l.23,1.81c6.67,1.25,11.2-.22,11.2-9.24v-2.77c2.29.63,4.88.98,6.94.98h10.91c2.82,0,5.33-.48,7.56-1.3,2.23.82,4.74,1.3,7.56,1.3h21.13v-.34l-2.48-2.75v-31.72l2.48-2.75ZM288.25,211.41c5.38-2.13,10.3-2.13,15.68,0-.01,5.21-2.5,10.6-7.84,13.6-5.34-2.99-7.82-8.39-7.84-13.6Z"/>
      <path class="cls-2" d="M409.88,231.1v-22.41l2.48-2.75v-.34h-10.36v.34l2.48,2.75v22.85c0,5.32-2.43,7.87-7.2,6.99l.23,1.81c6.68,1.25,12.37-.22,12.37-9.24Z"/>
      <path class="cls-2" d="M48.99,208.68v17.55l2.46,2.73v.34h-23.32c-3.23,0-5.84-2.61-5.84-5.84v-16.09h-1.39c-12.4,0-14.67,17.03-1.27,18.74v1c-18.85,1.53-19.49-21.52-1.89-21.52h12.13v.34l-2.48,2.75v14.99c0,2.03,1.64,3.68,3.67,3.68h12.56v-21.77h7.83v.34l-2.46,2.73Z"/>
      <polygon class="cls-2" points="45.56 234.03 42.36 237.22 42.36 237.63 45.56 240.83 45.96 240.83 49.16 237.63 49.16 237.22 45.96 234.03 45.56 234.03"/>
      <polygon class="cls-2" points="34.47 237.22 34.47 237.63 37.67 240.83 38.08 240.83 41.27 237.63 41.27 237.22 38.08 234.03 37.67 234.03 34.47 237.22"/>
      <polygon class="cls-2" points="24.94 201.89 28.14 198.7 28.14 198.29 24.94 195.09 24.53 195.09 21.34 198.29 21.34 198.7 24.53 201.89 24.94 201.89"/>
      <polygon class="cls-2" points="17.06 201.89 20.25 198.7 20.25 198.29 17.06 195.09 16.65 195.09 13.45 198.29 13.45 198.7 16.65 201.89 17.06 201.89"/>
      <path class="cls-2" d="M67.43,205.6v.34l-2.48,2.75v22.41c0,9.02-5.69,10.49-12.37,9.24l-.23-1.81c4.76.87,7.2-1.67,7.2-6.99v-22.85l-2.48-2.75v-.34h10.37Z"/>
      <path class="cls-2" d="M257.17,205.6v.34l-2.46,2.73v20.63h-12.13c-3.63,0-5.63-1.08-7.78-2.85-.25.41-.54.8-.88,1.14-1.09,1.09-2.58,1.71-4.14,1.71h-13.84c-3.23,0-5.84-2.61-5.84-5.84v-16.09h-1.39c-12.4,0-14.68,17.03-1.27,18.74v1c-18.85,1.53-19.49-21.52-1.9-21.52h12.13v.34l-2.48,2.75v14.99c0,2.03,1.64,3.68,3.67,3.68h7.17c2.33,0,4.23-1.89,4.23-4.23v-17.52l-.04-.02h7.89v.34l-2.48,2.75v13.67c1.75,3.08,4.5,5,7.68,5h6.03v-21.77h7.83Z"/>
      <path class="cls-2" d="M554.07,191.76v-.34h-10.05v.34l2.48,2.75h0l.03,32.87h-3.35c-19.48.29-15.97-32.14-40.11-19.84v1.77c16.06-5.82,16.25,12,28.37,18.06h-32.84c-.12-9.85-1.4-19.84-10.99-19.84s-11,14.11-11,14.65c-.26,4.42-2.24,5.2-3.81,5.2h-12.35c3.34-2.02,5.33-5.13,6.79-8.51l-2.7-13.32-5.46-1.01c-9.11,8.68-12.48,16.65-12.48,22.85h-9.08v-19.01l2.18-2.41v-.34h-9.05c-4.63,0-9.01,2.15-11.82,5.84-2.82,3.68-3.76,8.46-2.55,12.94l1.33,4.93h13.32l1.19-1.94h-9.66l-1.58-5.78c-.92-3.39-.21-7.01,1.92-9.79,2.13-2.79,5.44-4.42,8.95-4.42h.38v22.23c0,2.64-1.15,5.14-3.15,6.85-2,1.72-4.65,2.48-7.26,2.07l.25,1.91c2.05.21,7.28,1.49,11.79-2.58,2.4-2.17,3.77-5.26,3.77-8.49v-.06h9.19c.81,6.68,5.77,10.84,11.22,10.84h8.75l1.97-3.18c-.72-3.03-2.86-5.93-5.74-7.67h12.33c2.45,0,4.48-1.05,5.62-3.02,2.24,1.87,4.25,3.02,8,3.02h3.08l1.2-1.95h-3.54c-3.18,0-5.44-1.54-7.68-4.31.05-.36.05-.78.05-1.2,0-5.75.16-12.51,5.59-12.51s5.59,6.26,5.59,17.73v2.23h37.12l1.19-1.94c2.4,1.2,5.27,1.94,8.83,1.94h13.8v-.34l-2.48-2.75v-31.72l2.48-2.75ZM460.15,206.29l2.31,13.51c-.23,2.54-2.07,5.7-5.33,7.56h-5.58c.25-7.44,5.36-17.05,8.6-21.08ZM463.22,238.25h-1.54c-6.12,0-8.77-3.54-9.74-7.09-.16-.59-.26-1.21-.32-1.85h3.05c6.54,0,8.15,3.7,8.56,8.94Z"/>
    </g>
    <g>
      <path class="cls-2" d="M17.17,277.69c-4.07-2.83-6.76-4.71-6.76-8.53,0-2.93,2.16-4.9,5.37-4.9,2.76,0,4.97,1.39,6.77,4.26l.03.05h.43v-5.17l-.07-.02c-1.93-.71-4.23-1.07-6.84-1.07-6.07,0-9.99,3.3-9.99,8.4,0,4.6,2.89,7.43,8.23,11.04,4.51,2.97,6.65,5.07,6.65,8.95,0,3.51-2.62,6.07-6.22,6.07-4.51,0-7.51-2.95-9.15-9.02l-.02-.08h-.55v.1c-.16,2.81.15,6.88.42,8.74v.05s.05.03.05.03c1.8,1.02,4.86,2.25,9.25,2.25,6.42,0,10.74-3.95,10.74-9.83,0-5.24-3.86-8.05-8.34-11.3Z"/>
      <polygon class="cls-2" points="49.7 263.35 52.03 265.87 43.49 278.96 34.96 265.87 37.29 263.35 37.29 262.89 26.32 262.89 26.32 263.36 29.26 265.92 39.77 281.6 39.77 295.28 37.47 297.83 37.47 298.29 47.02 298.29 47.02 297.83 44.71 295.28 44.7 280.75 54.41 265.94 57.42 263.36 57.42 262.89 49.7 262.89 49.7 263.35"/>
      <polygon class="cls-2" points="93.72 263.35 96.02 265.9 96.02 295.28 93.72 297.83 93.72 298.29 103.26 298.29 103.26 297.83 100.96 295.28 100.96 265.9 103.26 263.35 103.26 262.89 93.72 262.89 93.72 263.35"/>
      <path class="cls-2" d="M170.2,263.35l2.78,2.82v24.46l-24.31-27.74h-6.74v.47l.04.03c.69.55,2.14,1.78,4.05,3.95v27.67l-2.68,2.82v.46h7.84v-.46l-2.78-2.82v-24.99l25.11,28.28h1.85v-32.12l2.68-2.82v-.46h-7.84v.46Z"/>
      <polygon class="cls-2" points="389.34 296.28 377.27 296.28 377.27 280.43 388.6 280.43 390.99 284.04 391.42 284.04 391.42 274.8 390.99 274.8 388.6 278.46 377.27 278.46 377.27 264.85 388.29 264.85 391.79 269.31 392.27 269.31 392.27 262.89 370.03 262.89 370.03 263.35 372.33 265.9 372.33 295.28 370.03 297.83 370.03 298.29 393.54 298.29 393.54 290.75 393.07 290.75 389.34 296.28"/>
      <path class="cls-2" d="M411.12,262.89h-11.55v.46l2.3,2.55v29.38l-2.3,2.55v.46h10.08v-.47l-2.83-2.55v-30.53h2.4c5.76,0,9.2,3.24,9.2,8.67,0,7.02-6.48,8.74-9.27,9.16h-.09v.68h.65c3.86,0,7.18-.85,9.59-2.48,2.72-1.83,4.16-4.6,4.16-8,0-6.1-4.73-9.89-12.33-9.89Z"/>
      <path class="cls-2" d="M452.14,263.35l2.36,2.55v19.74c0,6.14-4.01,10.11-10.21,10.11-6.96,0-10.8-3.57-10.8-10.05v-19.79l2.36-2.55v-.46h-9.65v.46l2.36,2.55v19.85c0,8.34,5.43,13.13,14.88,13.13,7.92,0,13.45-5.4,13.45-13.13v-19.85l2.3-2.55v-.46h-7.05v.46Z"/>
      <polygon class="cls-2" points="513.06 296.28 500.99 296.28 500.99 265.9 503.34 263.35 503.34 262.89 493.75 262.89 493.75 263.35 496.05 265.9 496.05 295.28 493.75 297.83 493.75 298.29 518.11 298.29 518.11 289.58 517.63 289.58 513.06 296.28"/>
      <polygon class="cls-2" points="523.31 263.35 525.62 265.9 525.62 295.28 523.31 297.83 523.31 298.29 532.86 298.29 532.86 297.83 530.55 295.28 530.55 265.9 532.86 263.35 532.86 262.89 523.31 262.89 523.31 263.35"/>
      <path class="cls-2" d="M568.23,291.01l-.03.04c-3.1,3.86-6.83,5.81-11.08,5.81-7.88,0-13.83-7.11-13.83-16.54,0-7.95,4.62-16.01,13.46-16.01,4.51,0,8.11,1.83,10.71,5.43l.03.04h.42v-5.92l-.08-.02c-2.5-.7-6.42-1.54-10.87-1.54-5.65,0-10.51,1.96-14.06,5.66-3.28,3.42-5.08,7.98-5.08,12.84,0,10.47,8.05,18.08,19.14,18.08,6.69,0,11.15-2.21,11.64-2.46l.06-.03v-5.38h-.42Z"/>
      <path class="cls-2" d="M310.23,279.12c3.9-1.51,6.52-5.8,5.88-9.78-.31-1.94-1.95-6.46-10.5-6.46h-11.13v.46l2.3,2.55v29.38l-2.3,2.55v.46h12.14c8.12,0,12.59-5,12.81-9.94.18-4.08-2.6-8.46-9.21-9.23ZM306.79,296.49c-2.25,0-3.98-.52-5.05-.98v-14.69h3.88c2.84,0,5.17.81,6.71,2.33,1.34,1.32,2.07,3.16,2.07,5.18,0,4.01-2.85,8.15-7.61,8.15ZM311.53,271.25c0,3.64-2.26,7.72-5.28,7.72h-3.67l-.85,1.39v-15.61h2.98c2.31,0,4.08.67,5.27,2,1.28,1.43,1.55,3.24,1.55,4.51Z"/>
      <path class="cls-2" d="M479.69,279.12c3.9-1.51,6.52-5.8,5.88-9.78-.31-1.94-1.95-6.46-10.5-6.46h-11.13v.46l2.3,2.55v29.38l-2.3,2.55v.46h12.14c8.12,0,12.59-5,12.81-9.94.18-4.08-2.6-8.46-9.21-9.23ZM476.25,296.49c-2.25,0-3.98-.52-5.05-.98v-14.69h3.88c2.84,0,5.17.81,6.71,2.33,1.34,1.32,2.07,3.16,2.07,5.18,0,4.01-2.85,8.15-7.62,8.15ZM481,271.25c0,3.64-2.26,7.72-5.28,7.72h-3.67l-.85,1.39v-15.61h2.98c2.31,0,4.08.67,5.27,2,1.28,1.43,1.55,3.24,1.55,4.51Z"/>
      <path class="cls-2" d="M358.81,290.05l-5.11-8.62c1.09-.58,2.03-1.32,2.79-2.19,2.62-3.01,3.29-7.21,1.7-10.7-1.64-3.59-5.26-5.65-9.95-5.65h-12.03v.46l2.3,2.55v29.38l-2.3,2.55v.46h10.08v-.47l-2.83-2.55v-12.54h5c.14,0,.29,0,.43-.02h.12s5.68,9.79,5.68,9.79c2.87,5.07,5.53,6.11,8.65,6.11,1.02,0,2.41-.27,2.68-.32l.08-.02v-.48l-.07-.02c-.86-.27-4.03-2.26-7.23-7.72ZM344.3,280.93l-.84,1.37v-17.56h3.3c2.4,0,4.38.88,5.71,2.54,1.16,1.44,1.8,3.43,1.8,5.6,0,3.9-2.13,8.04-6.07,8.04h-3.89Z"/>
      <path class="cls-2" d="M251.44,290.05l-5.11-8.62c1.09-.58,2.03-1.32,2.79-2.19,2.62-3.01,3.29-7.21,1.7-10.7-1.64-3.59-5.26-5.65-9.95-5.65h-12.03v.46l2.3,2.55v29.38l-2.3,2.55v.46h10.08v-.47l-2.83-2.55v-12.54h5c.14,0,.29,0,.43-.02h.12s5.68,9.79,5.68,9.79c2.87,5.07,5.53,6.11,8.65,6.11,1.02,0,2.41-.27,2.68-.32l.08-.02v-.48l-.07-.02c-.86-.27-4.03-2.26-7.23-7.72ZM236.92,280.93l-.83,1.36v-17.54h3.3c2.4,0,4.38.88,5.71,2.54,1.16,1.44,1.8,3.43,1.8,5.6,0,3.9-2.13,8.04-6.07,8.04h-3.9Z"/>
      <path class="cls-2" d="M83.5,290.05l-5.1-8.62c1.09-.58,2.03-1.32,2.79-2.19,2.62-3.01,3.29-7.21,1.7-10.7-1.64-3.59-5.26-5.65-9.95-5.65h-12.03v.46l2.3,2.55v29.38l-2.3,2.55v.46h10.08v-.47l-2.83-2.55v-12.54h5c.14,0,.29,0,.43-.02h.12s5.68,9.79,5.68,9.79c2.87,5.07,5.53,6.11,8.65,6.11,1.02,0,2.41-.27,2.68-.32l.08-.02v-.48l-.07-.02c-.86-.27-4.03-2.26-7.23-7.72ZM68.97,280.93l-.83,1.35v-17.53h3.3c2.4,0,4.38.88,5.71,2.54,1.16,1.44,1.8,3.43,1.8,5.6,0,3.9-2.13,8.04-6.07,8.04h-3.91Z"/>
      <path class="cls-2" d="M213.04,262.89h-5.57l-10.43,32.35-3.26,2.58v.47h8.02v-.46l-2.48-2.57,3.78-11.8h11.18l.51-1.54,4.66,13.29-2.53,2.62v.46h10.49v-.47l-2.98-2.54-11.38-32.4ZM203.73,281.5l5.21-16.26,5.7,16.26h-10.91Z"/>
      <path class="cls-2" d="M277.97,262.89h-5.57l-10.44,32.36-2.29,2.58v.46h7.06v-.46l-2.48-2.57,3.78-11.8h11.18l.51-1.54,4.66,13.29-2.53,2.62v.46h10.49v-.47l-2.98-2.54-11.38-32.4ZM268.65,281.5l5.21-16.26,5.7,16.26h-10.91Z"/>
      <path class="cls-2" d="M125.92,262.89h-5.57l-10.43,32.35-3.26,2.58v.47h8.02v-.46l-2.48-2.57,3.78-11.8h11.18l.51-1.54,4.66,13.29-2.53,2.62v.46h10.49v-.47l-2.98-2.54-11.38-32.4ZM116.6,281.5l5.21-16.26,5.7,16.26h-10.91Z"/>
    </g>
  </g>
</svg>