<?xml version="1.0" encoding="UTF-8"?>
<svg id="Layer_1" data-name="Layer 1" xmlns="http://www.w3.org/2000/svg" viewBox="0 0 573.65 117.46">
  <defs>
    <style>
      .cls-1 {
        fill: #042623;
      }
    </style>
  </defs>
  <g>
    <path class="cls-1" d="M162.51,8.09v31.72l2.48,2.75v.34h-21.89l-1.07-1.73c-.96,1.06-2.35,1.73-3.89,1.73h-8.68l-1.05-1.69c-.96,1.04-2.33,1.69-3.86,1.69h-10.07l-1.04-1.69c-.96,1.04-2.33,1.69-3.86,1.69h-16.99v.06c0,3.23-1.38,6.32-3.78,8.49-4.51,4.07-9.74,2.79-11.79,2.58l-.24-1.91c2.6.41,5.26-.35,7.25-2.07,2-1.71,3.15-4.22,3.15-6.85v-22.23h-.38c-3.51,0-6.82,1.64-8.95,4.42-2.13,2.79-2.84,6.41-1.91,9.79l1.57,5.78h9.67l-1.2,1.94h-13.31l-1.34-4.93c-1.21-4.48-.27-9.26,2.55-12.94,2.81-3.68,7.19-5.84,11.82-5.84h9.35v.34l-2.48,2.75v18.67h13.92c1.64,0,2.96-1.32,2.96-2.96v-14.07h5.37v13.71c0,1.26-.44,2.41-1.18,3.31h7.82c1.64,0,2.97-1.32,2.97-2.96v-16.07h5.36v15.72c0,1.26-.44,2.41-1.18,3.31h6.43c1.64,0,2.96-1.32,2.96-2.96v-18.06h5.37v17.71c0,1.26-.45,2.42-1.18,3.32h15.24l-.03-32.87-2.48-2.75v-.34h10.05v.34l-2.48,2.75Z"/>
    <polygon class="cls-1" points="567.91 5.34 567.91 5 557.85 5 557.85 5.34 560.33 8.09 560.33 39.81 557.85 42.55 557.85 42.9 567.91 42.9 567.91 42.55 565.43 39.81 565.43 8.09 567.91 5.34"/>
    <polygon class="cls-1" points="338.62 42.55 336.14 39.81 336.14 8.09 338.62 5.34 338.62 5 328.56 5 328.56 5.34 331.04 8.09 331.04 39.81 328.56 42.55 328.56 42.9 338.62 42.9 338.62 42.55"/>
    <polygon class="cls-1" points="508.08 50.81 508.08 51.22 511.27 54.41 511.68 54.41 514.88 51.22 514.88 50.81 511.68 47.61 511.27 47.61 508.08 50.81"/>
    <path class="cls-1" d="M393.91,22.27v17.55l2.47,2.73v.34h-22.29c-3.23,0-5.84-2.61-5.84-5.84v-16.09h-1.39c-12.4,0-14.67,17.03-1.27,18.74v1c-18.85,1.53-19.49-21.52-1.89-21.52h12.13v.34l-2.48,2.75v14.99c0,2.03,1.64,3.68,3.67,3.68h11.53v-21.77h7.83v.34l-2.47,2.73Z"/>
    <polygon class="cls-1" points="390.48 47.61 387.29 50.81 387.29 51.22 390.48 54.41 390.89 54.41 394.08 51.22 394.08 50.81 390.89 47.61 390.48 47.61"/>
    <polygon class="cls-1" points="386.2 51.22 386.2 50.81 383 47.61 382.59 47.61 379.4 50.81 379.4 51.22 382.59 54.41 383 54.41 386.2 51.22"/>
    <polygon class="cls-1" points="370.9 15.48 374.09 12.28 374.09 11.87 370.9 8.68 370.49 8.68 367.3 11.87 367.3 12.28 370.49 15.48 370.9 15.48"/>
    <polygon class="cls-1" points="363.01 15.48 366.21 12.28 366.21 11.87 363.01 8.68 362.6 8.68 359.41 11.87 359.41 12.28 362.6 15.48 363.01 15.48"/>
    <polygon class="cls-1" points="233.21 50.81 233.21 51.22 236.41 54.41 236.82 54.41 240.01 51.22 240.01 50.81 236.82 47.61 236.41 47.61 233.21 50.81"/>
    <polygon class="cls-1" points="251.85 47.61 248.65 50.81 248.65 51.22 251.85 54.41 252.26 54.41 255.45 51.22 255.45 50.81 252.26 47.61 251.85 47.61"/>
    <polygon class="cls-1" points="232.12 50.81 228.93 47.61 228.52 47.61 225.33 50.81 225.33 51.22 228.52 54.41 228.93 54.41 232.12 51.22 232.12 50.81"/>
    <polygon class="cls-1" points="213.05 15.48 216.24 12.28 216.24 11.87 213.05 8.68 212.64 8.68 209.44 11.87 209.44 12.28 212.64 15.48 213.05 15.48"/>
    <polygon class="cls-1" points="205.16 15.48 208.35 12.28 208.35 11.87 205.16 8.68 204.75 8.68 201.56 11.87 201.56 12.28 204.75 15.48 205.16 15.48"/>
    <polygon class="cls-1" points="168.78 5.34 171.26 8.09 171.26 39.81 168.78 42.55 168.78 42.9 178.83 42.9 178.83 42.55 176.35 39.81 176.35 8.09 178.83 5.34 178.83 5 168.78 5 168.78 5.34"/>
    <path class="cls-1" d="M324.77,5.34v-.34h-10.05v.34l2.48,2.75.03,32.87h-11.32c-2.42-.01-4.56-.35-6.46-.93,7.27-4.21,9.56-11.59,10.14-16.12-3.46-1.73-8.24-2.8-13.51-2.8s-10.05,1.07-13.51,2.8c.58,4.53,2.86,11.9,10.14,16.12-1.93.59-4.12.93-6.59.93h-7.78c-1.98,0-5.14-.75-7.67-2.05v-16.63l2.48-2.75v-.34h-10.36v.34l2.48,2.75v22.85c0,5.32-1.27,7.87-6.03,6.99l.23,1.81c6.67,1.25,11.2-.22,11.2-9.24v-2.77c2.29.63,4.88.98,6.94.98h10.91c2.82,0,5.33-.48,7.56-1.3,2.23.82,4.74,1.3,7.56,1.3h21.13v-.34l-2.48-2.75V8.09l2.48-2.75ZM288.25,25c5.38-2.13,10.3-2.13,15.68,0-.01,5.21-2.5,10.6-7.84,13.6-5.34-2.99-7.82-8.39-7.84-13.6Z"/>
    <path class="cls-1" d="M409.88,44.69v-22.41l2.48-2.75v-.34h-10.36v.34l2.48,2.75v22.85c0,5.32-2.43,7.87-7.2,6.99l.23,1.81c6.68,1.25,12.37-.22,12.37-9.24Z"/>
    <path class="cls-1" d="M48.99,22.27v17.55l2.46,2.73v.34h-23.32c-3.23,0-5.84-2.61-5.84-5.84v-16.09h-1.39c-12.4,0-14.67,17.03-1.27,18.74v1C.78,42.24.14,19.19,17.74,19.19h12.13v.34l-2.48,2.75v14.99c0,2.03,1.64,3.68,3.67,3.68h12.56v-21.77h7.83v.34l-2.46,2.73Z"/>
    <polygon class="cls-1" points="45.56 47.61 42.36 50.81 42.36 51.22 45.56 54.41 45.96 54.41 49.16 51.22 49.16 50.81 45.96 47.61 45.56 47.61"/>
    <polygon class="cls-1" points="34.47 50.81 34.47 51.22 37.67 54.41 38.08 54.41 41.27 51.22 41.27 50.81 38.08 47.61 37.67 47.61 34.47 50.81"/>
    <polygon class="cls-1" points="24.94 15.48 28.14 12.28 28.14 11.87 24.94 8.68 24.53 8.68 21.34 11.87 21.34 12.28 24.53 15.48 24.94 15.48"/>
    <polygon class="cls-1" points="17.06 15.48 20.25 12.28 20.25 11.87 17.06 8.68 16.65 8.68 13.45 11.87 13.45 12.28 16.65 15.48 17.06 15.48"/>
    <path class="cls-1" d="M67.43,19.19v.34l-2.48,2.75v22.41c0,9.02-5.69,10.49-12.37,9.24l-.23-1.81c4.76.87,7.2-1.67,7.2-6.99v-22.85l-2.48-2.75v-.34h10.37Z"/>
    <path class="cls-1" d="M257.17,19.19v.34l-2.46,2.73v20.63h-12.13c-3.63,0-5.63-1.08-7.78-2.85-.25.41-.54.8-.88,1.14-1.09,1.09-2.58,1.71-4.14,1.71h-13.84c-3.23,0-5.84-2.61-5.84-5.84v-16.09h-1.39c-12.4,0-14.68,17.03-1.27,18.74v1c-18.85,1.53-19.49-21.52-1.9-21.52h12.13v.34l-2.48,2.75v14.99c0,2.03,1.64,3.68,3.67,3.68h7.17c2.33,0,4.23-1.89,4.23-4.23v-17.52l-.04-.02h7.89v.34l-2.48,2.75v13.67c1.75,3.08,4.5,5,7.68,5h6.03v-21.77h7.83Z"/>
    <path class="cls-1" d="M554.07,5.34v-.34h-10.05v.34l2.48,2.75h0l.03,32.87h-3.35c-19.48.29-15.97-32.14-40.11-19.84v1.77c16.06-5.82,16.25,12,28.37,18.06h-32.84c-.12-9.85-1.4-19.84-10.99-19.84s-11,14.11-11,14.65c-.26,4.42-2.24,5.2-3.81,5.2h-12.35c3.34-2.02,5.33-5.13,6.79-8.51l-2.7-13.32-5.46-1.01c-9.11,8.68-12.48,16.65-12.48,22.85h-9.08v-19.01l2.18-2.41v-.34h-9.05c-4.63,0-9.01,2.15-11.82,5.84-2.82,3.68-3.76,8.46-2.55,12.94l1.33,4.93h13.32l1.19-1.94h-9.66l-1.58-5.78c-.92-3.39-.21-7.01,1.92-9.79,2.13-2.79,5.44-4.42,8.95-4.42h.38v22.23c0,2.64-1.15,5.14-3.15,6.85-2,1.72-4.65,2.48-7.26,2.07l.25,1.91c2.05.21,7.28,1.49,11.79-2.58,2.4-2.17,3.77-5.26,3.77-8.49v-.06h9.19c.81,6.68,5.77,10.84,11.22,10.84h8.75l1.97-3.18c-.72-3.03-2.86-5.93-5.74-7.67h12.33c2.45,0,4.48-1.05,5.62-3.02,2.24,1.87,4.25,3.02,8,3.02h3.08l1.2-1.95h-3.54c-3.18,0-5.44-1.54-7.68-4.31.05-.36.05-.78.05-1.2,0-5.75.16-12.51,5.59-12.51s5.59,6.26,5.59,17.73v2.23h37.12l1.19-1.94c2.4,1.2,5.27,1.94,8.83,1.94h13.8v-.34l-2.48-2.75V8.09l2.48-2.75ZM460.15,19.88l2.31,13.51c-.23,2.54-2.07,5.7-5.33,7.56h-5.58c.25-7.44,5.36-17.05,8.6-21.08ZM463.22,51.84h-1.54c-6.12,0-8.77-3.54-9.74-7.09-.16-.59-.26-1.21-.32-1.85h3.05c6.54,0,8.15,3.7,8.56,8.94Z"/>
  </g>
  <g>
    <path class="cls-1" d="M17.17,91.27c-4.07-2.83-6.76-4.71-6.76-8.53,0-2.93,2.16-4.9,5.37-4.9,2.76,0,4.97,1.39,6.77,4.26l.03.05h.43v-5.17l-.07-.02c-1.93-.71-4.23-1.07-6.84-1.07-6.07,0-9.99,3.3-9.99,8.4,0,4.6,2.89,7.43,8.23,11.04,4.51,2.97,6.65,5.07,6.65,8.95,0,3.51-2.62,6.07-6.22,6.07-4.51,0-7.51-2.95-9.15-9.02l-.02-.08h-.55v.1c-.16,2.81.15,6.88.42,8.74v.05s.05.03.05.03c1.8,1.02,4.86,2.25,9.25,2.25,6.42,0,10.74-3.95,10.74-9.83,0-5.24-3.86-8.05-8.34-11.3Z"/>
    <polygon class="cls-1" points="49.7 76.93 52.03 79.46 43.49 92.55 34.96 79.46 37.29 76.93 37.29 76.47 26.32 76.47 26.32 76.94 29.26 79.5 39.77 95.18 39.77 108.86 37.47 111.41 37.47 111.88 47.02 111.88 47.02 111.41 44.71 108.86 44.7 94.34 54.41 79.52 57.42 76.94 57.42 76.47 49.7 76.47 49.7 76.93"/>
    <polygon class="cls-1" points="93.72 76.93 96.02 79.49 96.02 108.86 93.72 111.41 93.72 111.88 103.26 111.88 103.26 111.41 100.96 108.86 100.96 79.49 103.26 76.93 103.26 76.47 93.72 76.47 93.72 76.93"/>
    <path class="cls-1" d="M170.2,76.94l2.78,2.82v24.46l-24.31-27.74h-6.74v.47l.04.03c.69.55,2.14,1.78,4.05,3.95v27.67l-2.68,2.82v.46h7.84v-.46l-2.78-2.82v-24.99l25.11,28.28h1.85v-32.12l2.68-2.82v-.46h-7.84v.46Z"/>
    <polygon class="cls-1" points="389.34 109.86 377.27 109.86 377.27 94.01 388.6 94.01 390.99 97.63 391.42 97.63 391.42 88.38 390.99 88.38 388.6 92.05 377.27 92.05 377.27 78.43 388.29 78.43 391.79 82.9 392.27 82.9 392.27 76.47 370.03 76.47 370.03 76.93 372.33 79.49 372.33 108.86 370.03 111.41 370.03 111.88 393.54 111.88 393.54 104.33 393.07 104.33 389.34 109.86"/>
    <path class="cls-1" d="M411.12,76.47h-11.55v.46l2.3,2.55v29.38l-2.3,2.55v.46h10.08v-.47l-2.83-2.55v-30.53h2.4c5.76,0,9.2,3.24,9.2,8.67,0,7.02-6.48,8.74-9.27,9.16h-.09v.68h.65c3.86,0,7.18-.85,9.59-2.48,2.72-1.83,4.16-4.6,4.16-8,0-6.1-4.73-9.89-12.33-9.89Z"/>
    <path class="cls-1" d="M452.14,76.93l2.36,2.55v19.74c0,6.14-4.01,10.11-10.21,10.11-6.96,0-10.8-3.57-10.8-10.05v-19.79l2.36-2.55v-.46h-9.65v.46l2.36,2.55v19.85c0,8.34,5.43,13.13,14.88,13.13,7.92,0,13.45-5.4,13.45-13.13v-19.85l2.3-2.55v-.46h-7.05v.46Z"/>
    <polygon class="cls-1" points="513.06 109.86 500.99 109.86 500.99 79.49 503.34 76.93 503.34 76.47 493.75 76.47 493.75 76.93 496.05 79.49 496.05 108.86 493.75 111.41 493.75 111.88 518.11 111.88 518.11 103.16 517.63 103.16 513.06 109.86"/>
    <polygon class="cls-1" points="523.31 76.93 525.62 79.49 525.62 108.86 523.31 111.41 523.31 111.88 532.86 111.88 532.86 111.41 530.55 108.86 530.55 79.49 532.86 76.93 532.86 76.47 523.31 76.47 523.31 76.93"/>
    <path class="cls-1" d="M568.23,104.6l-.03.04c-3.1,3.86-6.83,5.81-11.08,5.81-7.88,0-13.83-7.11-13.83-16.54,0-7.95,4.62-16.01,13.46-16.01,4.51,0,8.11,1.83,10.71,5.43l.03.04h.42v-5.92l-.08-.02c-2.5-.7-6.42-1.54-10.87-1.54-5.65,0-10.51,1.96-14.06,5.66-3.28,3.42-5.08,7.98-5.08,12.84,0,10.47,8.05,18.08,19.14,18.08,6.69,0,11.15-2.21,11.64-2.46l.06-.03v-5.38h-.42Z"/>
    <path class="cls-1" d="M310.23,92.71c3.9-1.51,6.52-5.8,5.88-9.78-.31-1.94-1.95-6.46-10.5-6.46h-11.13v.46l2.3,2.55v29.38l-2.3,2.55v.46h12.14c8.12,0,12.59-5,12.81-9.94.18-4.08-2.6-8.46-9.21-9.23ZM306.79,110.07c-2.25,0-3.98-.52-5.05-.98v-14.69h3.88c2.84,0,5.17.81,6.71,2.33,1.34,1.32,2.07,3.16,2.07,5.18,0,4.01-2.85,8.15-7.61,8.15ZM311.53,84.83c0,3.64-2.26,7.72-5.28,7.72h-3.67l-.85,1.39v-15.61h2.98c2.31,0,4.08.67,5.27,2,1.28,1.43,1.55,3.24,1.55,4.51Z"/>
    <path class="cls-1" d="M479.69,92.71c3.9-1.51,6.52-5.8,5.88-9.78-.31-1.94-1.95-6.46-10.5-6.46h-11.13v.46l2.3,2.55v29.38l-2.3,2.55v.46h12.14c8.12,0,12.59-5,12.81-9.94.18-4.08-2.6-8.46-9.21-9.23ZM476.25,110.07c-2.25,0-3.98-.52-5.05-.98v-14.69h3.88c2.84,0,5.17.81,6.71,2.33,1.34,1.32,2.07,3.16,2.07,5.18,0,4.01-2.85,8.15-7.62,8.15ZM481,84.83c0,3.64-2.26,7.72-5.28,7.72h-3.67l-.85,1.39v-15.61h2.98c2.31,0,4.08.67,5.27,2,1.28,1.43,1.55,3.24,1.55,4.51Z"/>
    <path class="cls-1" d="M358.81,103.64l-5.11-8.62c1.09-.58,2.03-1.32,2.79-2.19,2.62-3.01,3.29-7.21,1.7-10.7-1.64-3.59-5.26-5.65-9.95-5.65h-12.03v.46l2.3,2.55v29.38l-2.3,2.55v.46h10.08v-.47l-2.83-2.55v-12.54h5c.14,0,.29,0,.43-.02h.12s5.68,9.79,5.68,9.79c2.87,5.07,5.53,6.11,8.65,6.11,1.02,0,2.41-.27,2.68-.32l.08-.02v-.48l-.07-.02c-.86-.27-4.03-2.26-7.23-7.72ZM344.3,94.51l-.84,1.37v-17.56h3.3c2.4,0,4.38.88,5.71,2.54,1.16,1.44,1.8,3.43,1.8,5.6,0,3.9-2.13,8.04-6.07,8.04h-3.89Z"/>
    <path class="cls-1" d="M251.44,103.64l-5.11-8.62c1.09-.58,2.03-1.32,2.79-2.19,2.62-3.01,3.29-7.21,1.7-10.7-1.64-3.59-5.26-5.65-9.95-5.65h-12.03v.46l2.3,2.55v29.38l-2.3,2.55v.46h10.08v-.47l-2.83-2.55v-12.54h5c.14,0,.29,0,.43-.02h.12s5.68,9.79,5.68,9.79c2.87,5.07,5.53,6.11,8.65,6.11,1.02,0,2.41-.27,2.68-.32l.08-.02v-.48l-.07-.02c-.86-.27-4.03-2.26-7.23-7.72ZM236.92,94.51l-.83,1.36v-17.54h3.3c2.4,0,4.38.88,5.71,2.54,1.16,1.44,1.8,3.43,1.8,5.6,0,3.9-2.13,8.04-6.07,8.04h-3.9Z"/>
    <path class="cls-1" d="M83.5,103.64l-5.1-8.62c1.09-.58,2.03-1.32,2.79-2.19,2.62-3.01,3.29-7.21,1.7-10.7-1.64-3.59-5.26-5.65-9.95-5.65h-12.03v.46l2.3,2.55v29.38l-2.3,2.55v.46h10.08v-.47l-2.83-2.55v-12.54h5c.14,0,.29,0,.43-.02h.12s5.68,9.79,5.68,9.79c2.87,5.07,5.53,6.11,8.65,6.11,1.02,0,2.41-.27,2.68-.32l.08-.02v-.48l-.07-.02c-.86-.27-4.03-2.26-7.23-7.72ZM68.97,94.51l-.83,1.35v-17.53h3.3c2.4,0,4.38.88,5.71,2.54,1.16,1.44,1.8,3.43,1.8,5.6,0,3.9-2.13,8.04-6.07,8.04h-3.91Z"/>
    <path class="cls-1" d="M213.04,76.47h-5.57l-10.43,32.35-3.26,2.58v.47h8.02v-.46l-2.48-2.57,3.78-11.8h11.18l.51-1.54,4.66,13.29-2.53,2.62v.46h10.49v-.47l-2.98-2.54-11.38-32.4ZM203.73,95.08l5.21-16.26,5.7,16.26h-10.91Z"/>
    <path class="cls-1" d="M277.97,76.47h-5.57l-10.44,32.36-2.29,2.58v.46h7.06v-.46l-2.48-2.57,3.78-11.8h11.18l.51-1.54,4.66,13.29-2.53,2.62v.46h10.49v-.47l-2.98-2.54-11.38-32.4ZM268.65,95.08l5.21-16.26,5.7,16.26h-10.91Z"/>
    <path class="cls-1" d="M125.92,76.47h-5.57l-10.43,32.35-3.26,2.58v.47h8.02v-.46l-2.48-2.57,3.78-11.8h11.18l.51-1.54,4.66,13.29-2.53,2.62v.46h10.49v-.47l-2.98-2.54-11.38-32.4ZM116.6,95.08l5.21-16.26,5.7,16.26h-10.91Z"/>
  </g>
</svg>